<?xml version="1.0" standalone="no"?>
<!DOCTYPE svg PUBLIC "-//W3C//DTD SVG 1.1//EN" "http://www.w3.org/Graphics/SVG/1.1/DTD/svg11.dtd" >
<svg xmlns="http://www.w3.org/2000/svg">
<metadata>Generated by IcoMoon</metadata>
<defs>
<font id="icomoon" horiz-adv-x="1024">
<font-face units-per-em="1024" ascent="870.4" descent="-153.6" />
<missing-glyph horiz-adv-x="1024" />
<glyph unicode="&#x20;" horiz-adv-x="0" d="" />
<glyph unicode="&#xe900;" glyph-name="arrow-down" d="M512 172.8c-8.533 0-17.067 4.267-21.333 8.533l-298.667 298.667c-12.8 12.8-12.8 29.867 0 42.667s34.133 12.8 46.933 0l277.333-277.333 273.067 277.333c12.8 12.8 34.133 12.8 46.933 0s12.8-34.133 0-46.933l-298.667-298.667c-8.533-4.267-17.067-4.267-25.6-4.267z" />
<glyph unicode="&#xe901;" glyph-name="arrow-left" d="M661.333 19.2c-8.533 0-17.067 4.267-21.333 8.533l-298.667 298.667c-12.8 12.8-12.8 34.133 0 46.933l298.667 298.667c12.8 12.8 34.133 12.8 46.933 0s12.8-34.133 0-46.933l-277.333-273.067 277.333-277.333c12.8-12.8 12.8-34.133 0-46.933-8.533-4.267-17.067-8.533-25.6-8.533z" />
<glyph unicode="&#xe902;" glyph-name="arrow-right" d="M362.667 19.2c-8.533 0-17.067 4.267-21.333 8.533-12.8 12.8-12.8 34.133 0 46.933l277.333 277.333-277.333 277.333c-12.8 12.8-12.8 29.867 0 42.667s34.133 12.8 46.933 0l298.667-298.667c12.8-12.8 12.8-34.133 0-46.933l-298.667-298.667c-8.533-4.267-17.067-8.533-25.6-8.533z" />
<glyph unicode="&#xe903;" glyph-name="arrow-up" d="M810.667 172.8c-8.533 0-17.067 4.267-21.333 8.533l-277.333 273.067-277.333-273.067c-12.8-12.8-34.133-12.8-46.933 0s-12.8 34.133 0 46.933l298.667 298.667c12.8 12.8 34.133 12.8 46.933 0l298.667-298.667c12.8-12.8 12.8-34.133 0-46.933-4.267-8.533-12.8-8.533-21.333-8.533z" />
<glyph unicode="&#xe904;" glyph-name="chat" d="M512-104.533c-64 0-132.267 12.8-196.267 42.667-17.067 4.267-34.133 12.8-46.933 12.8s-34.133-8.533-51.2-12.8c-34.133-12.8-85.333-29.867-115.2 8.533-34.133 34.133-17.067 81.067-4.267 115.2 8.533 17.067 12.8 34.133 12.8 51.2 0 12.8-8.533 29.867-12.8 46.933-81.067 174.933-42.667 384 93.867 516.267 85.333 85.333 200.533 132.267 324.267 132.267s238.933-46.933 324.267-132.267c179.2-179.2 179.2-469.333 0-648.533-93.867-85.333-209.067-132.267-328.533-132.267zM268.8 14.933c21.333 0 46.933-8.533 72.533-21.333 153.6-72.533 328.533-38.4 448 76.8 153.6 153.6 153.6 401.067 0 554.667-72.533 72.533-174.933 115.2-277.333 115.2-106.667 0-204.8-42.667-277.333-115.2-119.467-106.667-149.333-285.867-81.067-439.467 8.533-25.6 21.333-51.2 21.333-72.533 0-25.6-8.533-51.2-17.067-72.533s-17.067-42.667-8.533-51.2c8.533-4.267 34.133 4.267 46.933 8.533 21.333 8.533 46.933 17.067 72.533 17.067zM678.4 292.267c-25.6 0-42.667 17.067-42.667 42.667s17.067 42.667 42.667 42.667 42.667-17.067 42.667-42.667c0-25.6-17.067-42.667-42.667-42.667zM507.733 292.267c-25.6 0-42.667 17.067-42.667 42.667s17.067 42.667 42.667 42.667c25.6 0 42.667-17.067 42.667-42.667s-21.333-42.667-42.667-42.667zM337.067 292.267c-25.6 0-42.667 17.067-42.667 42.667s17.067 42.667 42.667 42.667 42.667-17.067 42.667-42.667c0-25.6-21.333-42.667-42.667-42.667z" />
<glyph unicode="&#xe905;" glyph-name="check" d="M789.333 501.333l-349.867-341.333c-4.267-4.267-12.8-8.533-21.333-8.533s-17.067 4.267-21.333 8.533l-162.133 157.867c-12.8 12.8-12.8 34.133 0 46.933s34.133 12.8 46.933 0l136.533-140.8 328.533 320c12.8 12.8 34.133 12.8 46.933 0 8.533-12.8 8.533-29.867-4.267-42.667z" />
<glyph unicode="&#xe906;" glyph-name="close" d="M746.667 160c12.8-12.8 12.8-34.133 0-46.933-4.267-4.267-12.8-8.533-21.333-8.533s-17.067 4.267-21.333 8.533l-192 192-192-192c-4.267-4.267-12.8-8.533-21.333-8.533s-17.067 4.267-21.333 8.533c-12.8 12.8-12.8 34.133 0 46.933l192 192-192 192c-12.8 12.8-12.8 34.133 0 46.933s34.133 12.8 46.933 0l192-192 192 192c12.8 12.8 34.133 12.8 46.933 0s12.8-34.133 0-46.933l-196.267-192 187.733-192z" />
<glyph unicode="&#xe907;" glyph-name="close-square" d="M635.733 433.067l-76.8-81.067 81.067-81.067c12.8-12.8 12.8-34.133 0-46.933-4.267-4.267-12.8-8.533-21.333-8.533s-17.067 4.267-21.333 8.533l-85.333 81.067-81.067-81.067c-12.8-12.8-34.133-12.8-46.933 0s-12.8 34.133 0 46.933l81.067 81.067-81.067 81.067c-12.8 12.8-12.8 34.133 0 46.933s34.133 12.8 46.933 0l81.067-81.067 81.067 81.067c12.8 12.8 34.133 12.8 46.933 0s8.533-34.133-4.267-46.933zM938.667 526.933v-354.133c0-153.6-98.133-256-238.933-256h-371.2c-140.8 0-243.2 102.4-243.2 256v349.867c0 153.6 98.133 256 243.2 256h366.933c145.067 0 243.2-102.4 243.2-251.733zM874.667 526.933c0 115.2-68.267 187.733-179.2 187.733h-366.933c-110.933 0-179.2-76.8-179.2-192v-349.867c0-115.2 72.533-192 179.2-192h371.2c110.933 0 174.933 72.533 174.933 192v354.133z" />
<glyph unicode="&#xe908;" glyph-name="download" d="M938.667 586.667v-209.067c0-102.4-85.333-187.733-187.733-187.733h-38.4c-17.067 0-34.133 12.8-34.133 34.133s12.8 34.133 34.133 34.133h38.4c68.267 0 123.733 55.467 123.733 123.733v204.8c0 68.267-55.467 123.733-123.733 123.733h-477.867c-68.267 0-123.733-55.467-123.733-123.733v-209.067c0-68.267 55.467-123.733 123.733-123.733h38.4c17.067 0 34.133-12.8 34.133-34.133s-12.8-34.133-34.133-34.133h-38.4c-102.4 0-187.733 85.333-187.733 187.733v213.333c0 106.667 85.333 192 187.733 192h473.6c106.667 0 192-85.333 192-192zM614.4 78.933l-72.533-68.267v435.2c0 17.067-12.8 34.133-29.867 34.133s-34.133-12.8-34.133-34.133v-435.2l-68.267 68.267c-12.8 12.8-34.133 12.8-46.933 0s-12.8-34.133 0-46.933l123.733-123.733c0 0 0 0 0 0 4.267-4.267 8.533-4.267 8.533-8.533 4.267 0 8.533-4.267 12.8-4.267s8.533 0 12.8 4.267c4.267 0 8.533 4.267 8.533 8.533 0 0 0 0 0 0l123.733 123.733c12.8 12.8 12.8 34.133 0 46.933s-25.6 12.8-38.4 0z" />
<glyph unicode="&#xe909;" glyph-name="expand" d="M725.333 309.333c-17.067 0-34.133 12.8-34.133 34.133v187.733h-192c-12.8 0-29.867 17.067-29.867 34.133s12.8 34.133 34.133 34.133h221.867c17.067 0 34.133-12.8 34.133-34.133v-221.867c0-17.067-17.067-34.133-34.133-34.133zM554.667 138.667c0 17.067-12.8 34.133-34.133 34.133h-187.733v192c0 12.8-17.067 29.867-34.133 29.867s-34.133-12.8-34.133-34.133v-221.867c0-17.067 12.8-34.133 34.133-34.133h221.867c17.067 0 34.133 17.067 34.133 34.133z" />
<glyph unicode="&#xe90a;" glyph-name="filter" d="M443.733-66.133c-8.533 0-17.067 4.267-25.6 8.533-17.067 8.533-25.6 25.6-25.6 42.667v196.267c0 46.933-17.067 93.867-51.2 128 0 0 0 0-4.267 4.267l-204.8 217.6c-21.333 25.6-38.4 59.733-38.4 98.133v38.4c0 55.467 42.667 98.133 98.133 98.133h635.733c55.467 0 98.133-42.667 98.133-98.133v-38.4c0-34.133-12.8-68.267-38.4-98.133l-204.8-217.6c-34.133-34.133-51.2-81.067-51.2-132.267v-98.133c0-34.133-17.067-59.733-46.933-76.8l-119.467-64c-4.267-4.267-12.8-8.533-21.333-8.533zM384 356.267c0 0 4.267 0 0 0 46.933-46.933 72.533-110.933 72.533-179.2v-170.667l93.867 51.2c8.533 4.267 12.8 12.8 12.8 21.333v102.4c0 64 25.6 128 72.533 174.933l204.8 217.6c12.8 12.8 21.333 34.133 21.333 51.2v42.667c0 21.333-17.067 34.133-34.133 34.133h-631.467c-17.067 0-34.133-17.067-34.133-34.133v-38.4c0-21.333 8.533-38.4 21.333-51.2l200.533-221.867z" />
<glyph unicode="&#xe90b;" glyph-name="folder" d="M704-151.467h-384c-196.267 0-315.733 119.467-315.733 315.733v384c0 213.333 89.6 315.733 273.067 315.733h98.133c46.933 0 89.6-21.333 115.2-59.733l42.667-59.733c17.067-34.133 46.933-38.4 64-38.4h136.533c187.733 0 273.067-93.867 273.067-302.933v-243.2c8.533-196.267-106.667-311.467-302.933-311.467zM281.6 795.733c-149.333 0-209.067-76.8-209.067-251.733v-384c0-162.133 89.6-251.733 251.733-251.733h379.733c162.133 0 251.733 89.6 251.733 251.733v243.2c0 174.933-55.467 238.933-209.067 238.933h-136.533c-51.2 0-93.867 25.6-115.2 64l-42.667 55.467c-12.8 21.333-38.4 29.867-64 29.867h-106.667zM759.467 219.733c0 17.067-12.8 34.133-34.133 34.133h-426.667c-17.067 0-34.133-12.8-34.133-34.133s12.8-34.133 34.133-34.133h426.667c21.333 4.267 34.133 17.067 34.133 34.133z" />
<glyph unicode="&#xe90c;" glyph-name="forbidden" d="M512 744.533c-217.6 0-392.533-174.933-392.533-392.533s174.933-392.533 392.533-392.533 392.533 174.933 392.533 392.533-174.933 392.533-392.533 392.533zM179.2 352c0 183.467 149.333 332.8 332.8 332.8 81.067 0 153.6-29.867 209.067-76.8l-465.067-465.067c-46.933 55.467-76.8 128-76.8 209.067zM512 19.2c-81.067 0-153.6 29.867-209.067 76.8l465.067 465.067c46.933-55.467 76.8-132.267 76.8-209.067 0-183.467-149.333-332.8-332.8-332.8z" />
<glyph unicode="&#xe90d;" glyph-name="help-circle" d="M520.533 812.8c-256 0-469.333-209.067-469.333-469.333 0-256 209.067-469.333 469.333-469.333 256 0 469.333 209.067 469.333 469.333 0 256-213.333 469.333-469.333 469.333zM520.533-61.867c-221.867 0-405.333 179.2-405.333 405.333 4.267 221.867 183.467 401.067 405.333 401.067s405.333-179.2 405.333-405.333c0-217.6-183.467-401.067-405.333-401.067zM686.933 484.267c21.333-85.333-25.6-170.667-106.667-200.533-21.333-8.533-34.133-25.6-34.133-42.667v-25.6c0-17.067-12.8-34.133-34.133-34.133s-34.133 12.8-34.133 34.133v25.6c0 42.667 29.867 81.067 72.533 102.4 51.2 17.067 81.067 72.533 68.267 128-8.533 38.4-42.667 72.533-81.067 81.067-34.133 8.533-68.267 0-93.867-21.333s-38.4-51.2-38.4-85.333c0-17.067-12.8-34.133-34.133-34.133s-34.133 12.8-34.133 34.133c0 55.467 25.6 102.4 64 136.533 42.667 34.133 98.133 42.667 149.333 29.867 72.533-17.067 119.467-68.267 136.533-128zM554.667 113.067v-4.267c0-17.067-12.8-34.133-34.133-34.133s-34.133 12.8-34.133 34.133v4.267c0 17.067 12.8 34.133 34.133 34.133s34.133-17.067 34.133-34.133z" />
<glyph unicode="&#xe90e;" glyph-name="help-sqaure" d="M695.467 778.667h-371.2c-140.8 0-238.933-102.4-238.933-251.733v-349.867c0-149.333 98.133-251.733 238.933-251.733h371.2c145.067 0 243.2 102.4 243.2 251.733v349.867c0 149.333-98.133 251.733-243.2 251.733zM874.667 177.067c0-115.2-68.267-187.733-179.2-187.733h-371.2c-106.667 0-179.2 72.533-179.2 187.733v349.867c0 115.2 68.267 187.733 179.2 187.733h371.2c106.667 0 179.2-72.533 179.2-187.733v-349.867zM657.067 458.667c17.067-72.533-21.333-145.067-89.6-166.4-12.8-4.267-21.333-17.067-21.333-25.6v-21.333c0-17.067-12.8-34.133-34.133-34.133s-34.133 12.8-34.133 34.133v21.333c0 38.4 25.6 72.533 64 85.333s59.733 55.467 51.2 93.867c-8.533 29.867-29.867 51.2-59.733 59.733-25.6 4.267-51.2 0-68.267-12.8s-29.867-38.4-29.867-64c0-17.067-12.8-34.133-34.133-34.133s-34.133 12.8-34.133 34.133c0 42.667 21.333 85.333 55.467 110.933s81.067 34.133 128 25.6c51.2-17.067 89.6-55.467 106.667-106.667zM550.4 160v0c0-21.333-12.8-34.133-34.133-34.133s-34.133 12.8-34.133 34.133 12.8 34.133 34.133 34.133 34.133-17.067 34.133-34.133z" />
<glyph unicode="&#xe90f;" glyph-name="hide" d="M648.533 352c17.067-4.267 29.867-21.333 25.6-38.4-12.8-68.267-64-123.733-132.267-132.267 0 0-4.267 0-4.267 0-17.067 0-29.867 12.8-29.867 25.6-4.267 17.067 8.533 34.133 25.6 38.4 42.667 8.533 76.8 42.667 81.067 81.067 0 17.067 17.067 29.867 34.133 25.6zM934.4 360.533c-21.333 51.2-51.2 98.133-81.067 140.8-8.533 12.8-29.867 17.067-42.667 4.267-12.8-8.533-17.067-29.867-4.267-46.933 25.6-34.133 46.933-72.533 68.267-115.2-81.067-174.933-213.333-281.6-358.4-281.6-34.133 0-68.267 4.267-98.133 17.067-17.067 4.267-34.133-4.267-38.4-21.333s4.267-34.133 21.333-38.4c38.4-12.8 76.8-21.333 119.467-21.333 174.933 0 332.8 123.733 422.4 332.8-4.267 12.8-4.267 21.333-8.533 29.867zM870.4 659.2l-674.133-674.133c-4.267-4.267-12.8-8.533-21.333-8.533s-17.067 4.267-21.333 8.533c-12.8 12.8-12.8 34.133 0 46.933l85.333 85.333c-59.733 55.467-110.933 128-149.333 217.6-4.267 8.533-4.267 17.067 0 25.6 42.667 102.4 106.667 183.467 179.2 243.2 140.8 110.933 324.267 115.2 469.333 17.067l89.6 89.6c12.8 12.8 34.133 12.8 46.933 0s8.533-38.4-4.267-51.2zM281.6 164.267l89.6 89.6c-17.067 25.6-29.867 59.733-29.867 93.867 0 93.867 76.8 166.4 166.4 166.4 34.133 0 64-8.533 93.867-29.867l85.333 85.333c-123.733 76.8-268.8 72.533-384-21.333-59.733-46.933-115.2-119.467-153.6-204.8 38.4-72.533 81.067-136.533 132.267-179.2zM558.933 437.333c-12.8 8.533-29.867 12.8-46.933 12.8-55.467 0-102.4-46.933-102.4-102.4 0-17.067 4.267-34.133 12.8-46.933l136.533 136.533z" />
<glyph unicode="&#xe910;" glyph-name="info-square" d="M695.467 778.667h-366.933c-145.067 0-243.2-102.4-243.2-251.733v-349.867c0-149.333 98.133-251.733 243.2-251.733h371.2c145.067 0 243.2 102.4 243.2 251.733v349.867c-4.267 149.333-102.4 251.733-247.467 251.733zM874.667 177.067c0-115.2-68.267-187.733-179.2-187.733h-366.933c-106.667 0-179.2 72.533-179.2 187.733v349.867c0 115.2 68.267 187.733 179.2 187.733h371.2c106.667 0 179.2-72.533 179.2-187.733v-349.867zM512 386.133c-17.067 0-34.133-12.8-34.133-34.133v-170.667c0-17.067 12.8-34.133 34.133-34.133s34.133 12.8 34.133 34.133v170.667c-4.267 17.067-17.067 34.133-34.133 34.133zM512 556.8v0c-25.6 0-42.667-17.067-42.667-42.667s21.333-42.667 42.667-42.667 42.667 17.067 42.667 42.667-17.067 42.667-42.667 42.667z" />
<glyph unicode="&#xe911;" glyph-name="layout-no-sidebar" d="M853.333 770.133h-682.667c-89.6 0-162.133-72.533-162.133-162.133v-512c0-89.6 68.267-162.133 162.133-162.133h682.667c89.6 0 162.133 68.267 162.133 162.133v512c0 89.6-72.533 162.133-162.133 162.133zM947.2 96c0-55.467-42.667-93.867-93.867-93.867h-682.667c-55.467 0-93.867 42.667-93.867 93.867v512c0 55.467 42.667 93.867 93.867 93.867h682.667c55.467 0 93.867-42.667 93.867-93.867v-512z" />
<glyph unicode="&#xe912;" glyph-name="layout-sidebar" d="M853.333 770.133h-682.667c-89.6 0-162.133-72.533-162.133-162.133v-512c0-89.6 68.267-162.133 162.133-162.133h682.667c89.6 0 162.133 68.267 162.133 162.133v512c0 89.6-72.533 162.133-162.133 162.133zM76.8 96v512c0 55.467 42.667 93.867 93.867 93.867h136.533v-704h-136.533c-55.467 4.267-93.867 42.667-93.867 98.133zM947.2 96c0-55.467-42.667-93.867-93.867-93.867h-477.867v699.733h477.867c55.467 0 93.867-42.667 93.867-93.867v-512z" />
<glyph unicode="&#xe913;" glyph-name="notification" d="M516.267-23.467c-68.267 0-123.733 46.933-136.533 110.933h-170.667c-38.4 0-72.533 34.133-72.533 72.533 0 34.133 21.333 51.2 29.867 59.733 64 55.467 85.333 149.333 85.333 196.267v89.6c4.267 145.067 119.467 264.533 264.533 264.533s260.267-115.2 264.533-264.533v-89.6c0-46.933 17.067-136.533 85.333-196.267 12.8-8.533 29.867-29.867 29.867-55.467 0-38.4-34.133-72.533-72.533-72.533h-170.667c-12.8-64-68.267-115.2-136.533-115.2zM443.733 87.467c12.8-25.6 38.4-42.667 68.267-42.667s59.733 17.067 68.267 42.667h-136.533zM204.8 168.533c0 0-4.267-4.267-4.267-4.267 0-4.267 4.267-8.533 8.533-8.533h614.4c4.267 0 8.533 4.267 8.533 8.533 0 0 0 0-4.267 0 0 0-4.267 0-4.267 4.267-81.067 68.267-110.933 174.933-110.933 247.467v89.6c-4.267 110.933-89.6 200.533-200.533 200.533s-196.267-85.333-196.267-196.267v-89.6c4.267-55.467-21.333-174.933-110.933-251.733 4.267 0 0 0 0 0s0 0 0 0z" />
<glyph unicode="&#xe914;" glyph-name="roll-up" d="M759.467 352c0-17.067-12.8-34.133-34.133-34.133h-426.667c-17.067 0-34.133 12.8-34.133 34.133s12.8 34.133 34.133 34.133h426.667c17.067 0 34.133-17.067 34.133-34.133z" />
<glyph unicode="&#xe915;" glyph-name="search" d="M878.933 19.2l-187.733 187.733c51.2 55.467 81.067 132.267 81.067 213.333 0 179.2-145.067 320-324.267 320-174.933 0-320-140.8-320-320s145.067-324.267 324.267-324.267c72.533 0 140.8 25.6 196.267 64l187.733-187.733c4.267-4.267 12.8-8.533 21.333-8.533s17.067 4.267 21.333 8.533c12.8 17.067 12.8 34.133 0 46.933zM192 420.267c0 140.8 115.2 256 260.267 256 140.8 0 260.267-115.2 260.267-256s-115.2-260.267-260.267-260.267c-140.8 0-260.267 119.467-260.267 260.267z" />
<glyph unicode="&#xe916;" glyph-name="setting" d="M925.867 245.333c-8.533 29.867-25.6 55.467-51.2 68.267-12.8 8.533-21.333 17.067-21.333 29.867-4.267 12.8 0 25.6 4.267 38.4 4.267 8.533 8.533 12.8 17.067 17.067 51.2 29.867 72.533 98.133 42.667 149.333 0 0 0 4.267 0 4.267l-25.6 46.933c-29.867 55.467-102.4 72.533-153.6 42.667-12.8-8.533-25.6-8.533-38.4-4.267-17.067 4.267-25.6 12.8-34.133 21.333-4.267 8.533-4.267 17.067-8.533 21.333 0 29.867-12.8 59.733-34.133 81.067s-51.2 34.133-81.067 34.133h-55.467c-29.867 0-59.733-12.8-81.067-34.133-12.8-17.067-25.6-46.933-25.6-76.8 0-25.6-21.333-46.933-51.2-46.933-8.533 0-17.067 4.267-25.6 8.533-55.467 29.867-123.733 12.8-153.6-42.667l-25.6-46.933c-29.867-55.467-12.8-123.733 42.667-153.6 17.067-8.533 25.6-25.6 25.6-42.667s-8.533-34.133-25.6-42.667c-55.467-29.867-72.533-102.4-42.667-153.6l25.6-46.933c12.8-25.6 38.4-46.933 68.267-55.467s59.733-4.267 85.333 8.533c12.8 8.533 25.6 8.533 38.4 4.267s21.333-12.8 29.867-21.333c4.267-8.533 4.267-17.067 8.533-21.333 0-64 51.2-115.2 115.2-115.2h55.467c64 0 115.2 51.2 115.2 115.2 0 12.8 4.267 25.6 12.8 34.133s21.333 12.8 34.133 12.8c0 0 0 0 0 0 8.533 0 17.067-4.267 25.6-8.533 55.467-29.867 123.733-12.8 153.6 42.667l29.867 46.933c8.533 25.6 12.8 55.467 4.267 85.333zM861.867 189.867l-29.867-46.933c-12.8-25.6-42.667-29.867-68.267-17.067-17.067 8.533-34.133 12.8-55.467 17.067-29.867 0-59.733-12.8-81.067-34.133s-34.133-51.2-34.133-81.067c0-25.6-21.333-51.2-51.2-51.2h-55.467c-25.6 0-51.2 21.333-51.2 51.2 0 21.333-4.267 38.4-17.067 55.467-12.8 25.6-38.4 46.933-68.267 51.2 0 4.267-8.533 4.267-21.333 4.267-21.333 0-38.4-4.267-55.467-17.067-12.8-4.267-25.6-8.533-38.4-4.267s-21.333 12.8-29.867 25.6l-25.6 46.933c-12.8 21.333-4.267 55.467 17.067 68.267 34.133 21.333 55.467 59.733 55.467 98.133s-21.333 76.8-55.467 98.133c-21.333 12.8-29.867 42.667-17.067 68.267l29.867 46.933c12.8 25.6 42.667 29.867 68.267 17.067 17.067-8.533 34.133-17.067 55.467-17.067 59.733 0 110.933 51.2 115.2 110.933 0 12.8 4.267 25.6 12.8 34.133 4.267 12.8 17.067 21.333 29.867 21.333h55.467c12.8 0 25.6-4.267 34.133-17.067 8.533-8.533 17.067-21.333 17.067-38.4 0-21.333 4.267-38.4 17.067-55.467 17.067-25.6 38.4-42.667 68.267-51.2s59.733-4.267 85.333 12.8c25.6 12.8 55.467 4.267 68.267-17.067l25.6-42.667c0 0 0 0 0-4.267 12.8-25.6 4.267-55.467-17.067-68.267-17.067-8.533-29.867-25.6-42.667-42.667-17.067-25.6-21.333-55.467-12.8-85.333s25.6-55.467 51.2-68.267c12.8-8.533 21.333-17.067 21.333-29.867 8.533-12.8 4.267-25.6 0-38.4zM520.533 501.333c-81.067 0-145.067-64-145.067-145.067s64-145.067 145.067-145.067c81.067 0 145.067 64 145.067 145.067s-68.267 145.067-145.067 145.067zM520.533 275.2c-42.667 0-81.067 34.133-81.067 81.067s34.133 81.067 81.067 81.067c42.667 0 81.067-34.133 81.067-81.067s-38.4-81.067-81.067-81.067z" />
<glyph unicode="&#xe917;" glyph-name="show" d="M512 518.4c-93.867 0-166.4-76.8-166.4-166.4 0-93.867 76.8-166.4 166.4-166.4s166.4 76.8 166.4 166.4c0 89.6-72.533 166.4-166.4 166.4zM512 245.333c-55.467 0-102.4 46.933-102.4 102.4s46.933 102.4 102.4 102.4 102.4-46.933 102.4-102.4c0-55.467-46.933-102.4-102.4-102.4zM934.4 360.533c-85.333 209.067-247.467 332.8-422.4 332.8 0 0 0 0 0 0s0 0 0 0c-174.933 0-337.067-123.733-422.4-332.8-4.267-8.533-4.267-17.067 0-25.6 89.6-209.067 247.467-332.8 422.4-332.8 0 0 0 0 0 0s0 0 0 0 0 0 0 0c174.933 0 337.067 123.733 422.4 332.8 4.267 8.533 4.267 21.333 0 25.6zM512 70.4c-145.067 0-281.6 102.4-358.4 281.6 81.067 174.933 213.333 281.6 358.4 281.6s281.6-102.4 358.4-281.6c-76.8-179.2-213.333-281.6-358.4-281.6z" />
<glyph unicode="&#xe918;" glyph-name="text" d="M904.533 578.133l-247.467 268.8c-4.267 8.533-12.8 8.533-21.333 8.533h-324.267c-119.467 0-217.6-98.133-217.6-221.867v-550.4c0-128 93.867-234.667 213.333-234.667h396.8c119.467 4.267 209.067 106.667 209.067 234.667v473.6c0 8.533 0 12.8-8.533 21.333zM819.2 573.867h-72.533c-51.2 0-93.867 42.667-93.867 102.4v81.067l166.4-183.467zM704-87.467h-396.8c-81.067 0-149.333 76.8-149.333 170.667v550.4c0 85.333 68.267 157.867 153.6 157.867h277.333v-110.933c0-93.867 68.267-166.4 157.867-166.4h102.4v-430.933c0-93.867-64-166.4-145.067-170.667zM648.533 172.8c0-17.067-12.8-34.133-34.133-34.133h-264.533c-17.067 0-34.133 12.8-34.133 34.133s12.8 34.133 34.133 34.133h264.533c17.067 0 34.133-12.8 34.133-34.133zM320 369.067c0 17.067 12.8 34.133 34.133 34.133h157.867c17.067 0 34.133-12.8 34.133-34.133s-12.8-34.133-34.133-34.133h-162.133c-17.067 4.267-29.867 17.067-29.867 34.133z" />
<glyph unicode="&#xe919;" glyph-name="tree" d="M733.867 202.667c-55.467 0-98.133-34.133-110.933-85.333h-247.467c-29.867 0-51.2 25.6-51.2 51.2v149.333h298.667c12.8-51.2 59.733-85.333 110.933-85.333 64 0 119.467 51.2 119.467 119.467s-51.2 119.467-119.467 119.467c-55.467 0-98.133-34.133-110.933-85.333h-298.667v119.467c51.2 12.8 85.333 59.733 85.333 110.933-4.267 64-55.467 119.467-119.467 119.467s-119.467-55.467-119.467-119.467c0-55.467 34.133-98.133 85.333-110.933v-337.067c0-64 55.467-115.2 119.467-115.2h247.467c12.8-51.2 59.733-85.333 110.933-85.333 64 0 119.467 51.2 119.467 119.467s-55.467 115.2-119.467 115.2zM733.867 403.2c29.867 0 51.2-25.6 51.2-51.2s-25.6-51.2-51.2-51.2-51.2 21.333-51.2 51.2 21.333 51.2 51.2 51.2zM234.667 616.533c0 29.867 25.6 51.2 51.2 51.2s55.467-21.333 55.467-51.2-21.333-51.2-51.2-51.2-55.467 21.333-55.467 51.2zM733.867 32c-29.867 0-51.2 25.6-51.2 51.2s25.6 51.2 51.2 51.2 51.2-25.6 51.2-51.2-21.333-51.2-51.2-51.2z" />
<glyph unicode="&#xe91a;" glyph-name="upload" d="M938.667 322.133v-209.067c0-102.4-85.333-187.733-187.733-187.733h-473.6c-106.667 0-192 85.333-192 192v209.067c0 102.4 85.333 187.733 187.733 187.733h38.4c17.067 0 34.133-12.8 34.133-34.133s-12.8-29.867-29.867-29.867h-38.4c-68.267 0-123.733-55.467-123.733-123.733v-209.067c0-68.267 55.467-123.733 123.733-123.733h473.6c68.267 0 123.733 55.467 123.733 123.733v209.067c0 68.267-55.467 123.733-123.733 123.733h-38.4c-17.067 0-34.133 12.8-34.133 34.133s12.8 34.133 34.133 34.133h38.4c102.4-4.267 187.733-89.6 187.733-196.267zM388.267 612.267c8.533 0 17.067 4.267 21.333 8.533l72.533 72.533v-435.2c0-17.067 12.8-34.133 34.133-34.133s34.133 12.8 34.133 34.133v435.2l68.267-68.267c12.8-12.8 34.133-12.8 46.933 0s12.8 34.133 0 46.933l-123.733 123.733c-4.267 4.267-12.8 8.533-21.333 8.533s-17.067-4.267-21.333-8.533l-132.267-128c-12.8-12.8-12.8-34.133 0-46.933 4.267-4.267 12.8-8.533 21.333-8.533z" />
</font>
</defs>
</svg>
