<svg width="161" height="28" viewBox="0 0 161 28" fill="none" xmlns="http://www.w3.org/2000/svg">
<g clip-path="url(#clip0_164_181)">
<path d="M22.6888 11.1895L21.1622 13.8161L27.8478 25.3734H24.1628L18.3722 15.2871L17.7404 14.2889L19.5829 11.137L21.1096 8.51032L16.2138 0L6.475 16.8105H9.52825L16.2138 5.25328L18.0037 8.40525L16.2138 11.5572L16.1085 11.7148L13.8976 15.5497L11.5813 19.4897H7.94898H5.68537H4.89573L0 28H19.425L17.8984 25.3734H4.57988L6.36972 22.2214H10.0547H15.5295H19.2144L21.0569 25.3734L22.5835 28H32.375L22.6888 11.1895Z" fill="url(#paint0_linear_164_181)"/>
</g>
<path d="M49.8819 21.0001H46.7109L53.0109 6.21606H55.9089L62.2089 21.0001H58.9959L57.5469 17.5981H51.3309L49.8819 21.0001ZM54.4389 9.99606L52.2759 15.0991H56.5809L54.4389 9.99606Z" fill="white"/>
<path d="M73.5811 21.0001H63.1021V6.30006H66.1261V18.2911H73.5811V21.0001Z" fill="white"/>
<path d="M77.7294 21.0001H74.7054V6.30006H81.1314C82.7134 6.30006 83.9594 6.71306 84.8694 7.53906C85.7934 8.35107 86.2554 9.41507 86.2554 10.7311C86.2554 12.0611 85.7934 13.1321 84.8694 13.9441C83.9594 14.7701 82.7134 15.1831 81.1314 15.1831H77.7294V21.0001ZM77.7294 8.94607V12.6001H80.9214C81.6494 12.6001 82.2164 12.4461 82.6224 12.1381C83.0284 11.8161 83.2314 11.3611 83.2314 10.7731C83.2314 10.1851 83.0284 9.73707 82.6224 9.42907C82.2164 9.10707 81.6494 8.94607 80.9214 8.94607H77.7294Z" fill="white"/>
<path d="M90.5222 21.0001H87.4982V6.30006H90.5222V11.8021H97.1582V6.30006H100.161V21.0001H97.1582V14.5531H90.5222V21.0001Z" fill="white"/>
<path d="M104.252 21.0001H101.081L107.381 6.21606H110.279L116.579 21.0001H113.366L111.917 17.5981H105.701L104.252 21.0001ZM108.809 9.99606L106.646 15.0991H110.951L108.809 9.99606Z" fill="white"/>
<path d="M132.82 21.0001H121.795V6.30006H132.589V9.00906H124.819V11.8441H131.077V14.5111H124.819V18.2911H132.82V21.0001Z" fill="white"/>
<path d="M137.202 21.0001H134.178V6.30006H140.982C142.55 6.30006 143.782 6.70606 144.678 7.51807C145.588 8.31606 146.043 9.35906 146.043 10.6471C146.043 11.6271 145.77 12.4811 145.224 13.2091C144.692 13.9231 143.95 14.4271 142.998 14.7211L147.534 21.0001H144.027L139.743 15.0571H137.202V21.0001ZM137.202 8.94607V12.5161H140.814C141.5 12.5161 142.032 12.3621 142.41 12.0541C142.802 11.7461 142.998 11.3051 142.998 10.7311C142.998 10.1711 142.802 9.73707 142.41 9.42907C142.032 9.10707 141.5 8.94607 140.814 8.94607H137.202Z" fill="white"/>
<path d="M151.492 21.0001H148.468V6.30006H154.894C156.476 6.30006 157.722 6.71306 158.632 7.53906C159.556 8.35107 160.018 9.41507 160.018 10.7311C160.018 12.0611 159.556 13.1321 158.632 13.9441C157.722 14.7701 156.476 15.1831 154.894 15.1831H151.492V21.0001ZM151.492 8.94607V12.6001H154.684C155.412 12.6001 155.979 12.4461 156.385 12.1381C156.791 11.8161 156.994 11.3611 156.994 10.7731C156.994 10.1851 156.791 9.73707 156.385 9.42907C155.979 9.10707 155.412 8.94607 154.684 8.94607H151.492Z" fill="white"/>
<defs>
<linearGradient id="paint0_linear_164_181" x1="16.1875" y1="0" x2="16.1875" y2="28" gradientUnits="userSpaceOnUse">
<stop stop-color="#BC2B7A"/>
<stop offset="1" stop-color="#821852"/>
</linearGradient>
<clipPath id="clip0_164_181">
<rect width="32.375" height="28" fill="white"/>
</clipPath>
</defs>
</svg>
